<svg width="421" height="356" viewBox="0 0 421 356" fill="none" xmlns="http://www.w3.org/2000/svg">
<path d="M45.7647 143.13H40.5678C34.9911 143.13 29.6428 145.044 25.6995 148.45C21.7561 151.857 19.5408 156.478 19.5408 161.296V260.98C19.5408 265.797 21.7561 270.418 25.6995 273.825C29.6428 277.232 34.9911 279.145 40.5678 279.145H111.866C117.443 279.145 122.791 277.232 126.734 273.825C130.678 270.418 132.893 265.797 132.893 260.98" stroke="#263238" stroke-width="1.10311" stroke-linecap="round" stroke-linejoin="round" stroke-dasharray="4.41 4.41"/>
<path d="M127.083 49.0703V29.3804C127.083 26.4342 128.435 23.6084 130.844 21.5228C133.253 19.4372 136.521 18.2622 139.931 18.2556H232.649C236.065 18.2556 239.34 19.4277 241.755 21.514C244.17 23.6003 245.526 26.4299 245.526 29.3804" stroke="#263238" stroke-width="1.10311" stroke-linecap="round" stroke-linejoin="round" stroke-dasharray="4.41 4.41"/>
<path d="M210.5 356C311.919 356 394.135 346.076 394.135 333.833C394.135 321.591 311.919 311.667 210.5 311.667C109.082 311.667 26.8662 321.591 26.8662 333.833C26.8662 346.076 109.082 356 210.5 356Z" fill="#C780F1"/>
<path opacity="0.5" d="M210.5 356C311.919 356 394.135 346.076 394.135 333.833C394.135 321.591 311.919 311.667 210.5 311.667C109.082 311.667 26.8662 321.591 26.8662 333.833C26.8662 346.076 109.082 356 210.5 356Z" fill="white"/>
<path d="M383.607 75.4865V224.64C383.607 229.515 381.365 234.192 377.376 237.64C373.386 241.089 367.974 243.027 362.33 243.029H58.6704C53.0267 243.027 47.615 241.089 43.6252 237.64C39.6354 234.192 37.3941 229.515 37.3941 224.64V75.4865C37.3941 75.0475 37.3941 74.6582 37.4612 74.1943C37.835 69.5545 40.2318 65.2098 44.168 62.0368C48.1042 58.8637 53.2868 57.0984 58.6704 57.0971H362.33C367.72 57.099 372.908 58.8689 376.845 62.0489C380.782 65.2289 383.175 69.5817 383.54 74.2274C383.588 74.625 383.607 75.0558 383.607 75.4865Z" fill="white" stroke="#263238" stroke-width="1.10311" stroke-linecap="round" stroke-linejoin="round"/>
<path d="M47.7494 81.0862H374.335V218.866C374.335 223.436 372.234 227.818 368.494 231.049C364.753 234.281 359.681 236.096 354.391 236.096H67.7026C62.4132 236.096 57.3405 234.281 53.6004 231.049C49.8602 227.818 47.759 223.436 47.759 218.866V81.0862H47.7494Z" fill="#263238"/>
<path opacity="0.2" d="M374.345 81.0862V218.866C374.373 223.41 372.311 227.778 368.612 231.009C364.914 234.24 359.881 236.07 354.621 236.096H67.4725C62.2127 236.07 57.1804 234.24 53.4818 231.009C49.7833 227.778 47.7214 223.41 47.7494 218.866V81.0862H374.345Z" fill="white"/>
<path d="M383.54 74.2274H37.4612C37.835 69.5876 40.2318 65.2429 44.168 62.0699C48.1042 58.8968 53.2868 57.1316 58.6704 57.1302H362.33C367.714 57.1316 372.897 58.8968 376.833 62.0699C380.769 65.2429 383.166 69.5876 383.54 74.2274V74.2274Z" fill="#C780F1" stroke="#263238" stroke-width="1.10311" stroke-miterlimit="10"/>
<path d="M79.9851 65.6457C79.9851 66.2895 79.7641 66.9189 79.3501 67.4543C78.936 67.9897 78.3475 68.4069 77.659 68.6533C76.9704 68.8997 76.2128 68.9642 75.4818 68.8386C74.7509 68.7129 74.0794 68.4029 73.5525 67.9476C73.0255 67.4923 72.6666 66.9123 72.5212 66.2808C72.3758 65.6493 72.4504 64.9947 72.7356 64.3999C73.0208 63.805 73.5038 63.2966 74.1235 62.9389C74.7431 62.5812 75.4717 62.3902 76.217 62.3902C77.2163 62.3902 78.1748 62.7332 78.8815 63.3437C79.5881 63.9543 79.9851 64.7823 79.9851 65.6457Z" fill="#263238"/>
<path d="M95.9208 65.6457C95.9208 66.2895 95.6998 66.9189 95.2858 67.4543C94.8717 67.9897 94.2832 68.4069 93.5946 68.6533C92.9061 68.8997 92.1484 68.9642 91.4175 68.8386C90.6865 68.7129 90.0151 68.4029 89.4881 67.9476C88.9611 67.4923 88.6022 66.9123 88.4569 66.2808C88.3115 65.6493 88.3861 64.9947 88.6713 64.3999C88.9565 63.805 89.4395 63.2966 90.0591 62.9389C90.6788 62.5812 91.4074 62.3902 92.1526 62.3902C93.152 62.3902 94.1105 62.7332 94.8171 63.3437C95.5238 63.9543 95.9208 64.7823 95.9208 65.6457V65.6457Z" fill="#263238"/>
<path d="M108.088 68.9011C110.169 68.9011 111.856 67.4436 111.856 65.6457C111.856 63.8478 110.169 62.3902 108.088 62.3902C106.007 62.3902 104.32 63.8478 104.32 65.6457C104.32 67.4436 106.007 68.9011 108.088 68.9011Z" fill="#263238"/>
<path d="M374.335 81.0862V218.866C374.335 223.436 372.234 227.818 368.494 231.049C364.753 234.281 359.681 236.096 354.391 236.096H67.7026C63.0862 236.095 58.613 234.711 55.046 232.179C51.4791 229.647 49.0392 226.125 48.1425 222.213V222.163C47.8988 221.071 47.7768 219.962 47.7782 218.85V81.0862H374.335Z" stroke="#263238" stroke-width="1.10311" stroke-miterlimit="10"/>
<path d="M374.028 102.391C372.63 101.713 371.143 101.182 369.598 100.809L367.805 93.8925H360.192L358.418 100.809C356.865 101.175 355.371 101.707 353.969 102.391L347.095 98.5893L341.716 103.22L346.04 109.159C345.248 110.37 344.633 111.661 344.209 113.003L336.202 114.535V121.112L344.209 122.661C344.628 124.009 345.244 125.306 346.04 126.521L341.639 132.502L347.028 137.149L353.941 133.347C355.339 134.033 356.83 134.567 358.38 134.937L360.163 141.846H367.748L369.531 134.937C371.077 134.563 372.564 134.029 373.961 133.347L374.316 133.546V102.226L374.028 102.391ZM364.018 126.414C362.072 126.414 360.169 125.915 358.551 124.981C356.934 124.047 355.673 122.719 354.928 121.165C354.184 119.612 353.99 117.903 354.37 116.254C354.75 114.605 355.688 113.09 357.065 111.902C358.442 110.714 360.196 109.905 362.105 109.578C364.014 109.251 365.992 109.421 367.789 110.065C369.587 110.71 371.122 111.8 372.202 113.199C373.282 114.598 373.857 116.242 373.855 117.923C373.855 119.039 373.601 120.144 373.106 121.174C372.612 122.205 371.887 123.141 370.974 123.93C370.06 124.718 368.975 125.344 367.782 125.77C366.588 126.196 365.309 126.415 364.018 126.414V126.414Z" fill="#263238"/>
<path d="M236.82 109.06V95.193L219.945 91.9542C219.034 89.1371 217.747 86.4212 216.11 83.8612L218.152 81.0862H138.473L140.439 83.7866C138.781 86.3353 137.493 89.0507 136.604 91.8713L119.719 95.1185V109.018L136.604 112.274C137.493 115.115 138.781 117.853 140.439 120.425L131.167 133.024L142.529 142.832L157.103 134.813C160.06 136.25 163.205 137.376 166.471 138.168L170.23 152.706H186.242L190.02 138.135C193.275 137.339 196.41 136.213 199.359 134.78L213.943 142.798L225.295 132.991L216.081 120.392C217.714 117.836 219.001 115.126 219.916 112.315L236.82 109.06ZM178.332 120.044C174.23 120.044 170.22 118.993 166.81 117.024C163.399 115.055 160.741 112.257 159.171 108.983C157.601 105.709 157.191 102.106 157.991 98.6309C158.791 95.1552 160.766 91.9627 163.667 89.4569C166.567 86.9511 170.263 85.2447 174.286 84.5534C178.309 83.862 182.479 84.2168 186.268 85.5729C190.058 86.9291 193.297 89.2256 195.576 92.172C197.855 95.1185 199.071 98.5826 199.071 102.126C199.072 104.48 198.537 106.81 197.495 108.984C196.453 111.159 194.926 113.134 193 114.798C191.074 116.462 188.787 117.782 186.27 118.682C183.753 119.582 181.056 120.045 178.332 120.044V120.044Z" fill="#263238"/>
<path d="M130.323 204.279L131.004 193.27L117.801 190.056C117.188 187.794 116.281 185.598 115.097 183.512L123.075 173.837L114.522 165.644L102.575 171.443C100.291 170.202 97.8494 169.193 95.2976 168.436L93.0156 156.74L80.2824 156.234L76.6005 167.674C73.9771 168.182 71.434 168.961 69.0258 169.993L57.8363 163.11L48.3343 170.49L55.1036 180.82C53.6524 182.784 52.4806 184.892 51.6135 187.099L47.7782 187.646V202.556L50.578 203.235C51.1588 205.505 52.0571 207.705 53.2531 209.787L47.7494 216.456L48.1138 222.163V222.213L53.7996 227.655L65.7658 221.815C68.0454 223.082 70.4958 224.103 73.0624 224.855L75.3061 236.088L75.4115 236.56L88.1447 237.14L88.4803 236.088L91.8266 225.708C94.4618 225.199 97.0174 224.42 99.4397 223.389L110.61 230.264L120.102 222.892L113.391 212.554C114.828 210.592 115.984 208.487 116.833 206.283L130.323 204.279ZM96.5057 187.091C94.3246 184.995 91.4729 183.505 88.3114 182.809C85.1499 182.114 81.8206 182.244 78.7448 183.183C75.6689 184.123 72.9847 185.829 71.0316 188.087C69.0786 190.344 67.9444 193.051 67.7727 195.866C67.6009 198.681 68.3993 201.476 70.0668 203.898C71.7343 206.321 74.1959 208.262 77.1404 209.475C80.0848 210.689 83.3798 211.121 86.6084 210.716C89.837 210.312 92.8543 209.089 95.2784 207.203C98.5151 204.677 100.461 201.145 100.691 197.382C100.921 193.619 99.4164 189.93 96.5057 187.124V187.091Z" fill="#263238"/>
<path d="M232.17 187.869C232.663 186.164 232.923 184.416 232.947 182.659L242.103 178.517L239.572 170.49L229.236 170.905C228.189 169.404 226.944 168.014 225.525 166.763L228.584 158.222L220.242 154.081L213.262 160.658C211.292 160.247 209.276 160.025 207.25 159.995L202.456 152.084L193.174 154.263L193.663 163.201C191.927 164.105 190.318 165.181 188.869 166.407L178.974 163.764L174.18 170.962L181.851 176.985C181.355 178.683 181.1 180.427 181.093 182.178L171.917 186.32L174.449 194.339L184.804 193.916C185.83 195.424 187.07 196.815 188.495 198.058L185.418 206.557L193.769 210.699L200.711 204.171C202.683 204.6 204.708 204.82 206.742 204.826L211.536 212.745L220.817 210.566L220.405 202.929L220.338 201.62C222.099 200.724 223.728 199.648 225.19 198.414L235.075 201.065L239.16 194.902L239.85 193.858L232.17 187.869ZM210.242 192.74C207.861 193.307 205.34 193.251 202.997 192.578C200.654 191.905 198.595 190.647 197.081 188.962C195.567 187.277 194.667 185.241 194.494 183.113C194.321 180.985 194.883 178.861 196.109 177.01C197.336 175.159 199.171 173.664 201.382 172.715C203.594 171.766 206.081 171.405 208.53 171.68C210.978 171.954 213.277 172.85 215.136 174.255C216.994 175.659 218.327 177.509 218.967 179.569C219.819 182.315 219.38 185.241 217.746 187.708C216.111 190.175 213.414 191.984 210.242 192.74V192.74Z" fill="#263238"/>
<path d="M338.331 201.984L340.44 190.967L327.535 186.486C327.242 184.138 326.62 181.829 325.684 179.61L334.975 170.673L327.458 161.561L314.648 166.257C312.521 164.785 310.197 163.539 307.725 162.546L306.977 150.544L294.225 148.721L288.999 159.821C286.293 160.096 283.633 160.638 281.07 161.436L270.695 153.41L260.196 159.904L265.642 170.962C264.143 172.579 262.842 174.325 261.759 176.173C261.615 176.43 261.462 176.686 261.328 176.943L247.444 177.606L245.325 188.606L247.415 189.335L258.231 193.104C258.526 195.441 259.147 197.739 260.081 199.947L250.771 208.942L258.298 218.054L271.098 213.333C273.218 214.819 275.54 216.076 278.011 217.077L278.73 229.022L291.473 230.844L296.689 219.827C299.401 219.571 302.067 219.031 304.628 218.22L314.984 226.247L325.531 219.744L320.085 208.677C321.819 206.838 323.285 204.821 324.447 202.672L338.331 201.984ZM302.567 201.487C299.884 203.15 296.691 204.088 293.391 204.183C290.091 204.278 286.832 203.525 284.027 202.02C281.223 200.515 278.998 198.325 277.633 195.728C276.269 193.13 275.828 190.241 276.364 187.426C276.901 184.612 278.391 181.998 280.648 179.915C282.904 177.832 285.824 176.374 289.04 175.726C292.255 175.077 295.621 175.267 298.711 176.271C301.802 177.275 304.478 179.048 306.402 181.367C308.979 184.476 310.021 188.343 309.298 192.117C308.575 195.89 306.147 199.261 302.548 201.487H302.567Z" fill="#263238"/>
<path d="M165.512 120.425H65.2384C58.2961 120.425 52.6682 125.287 52.6682 131.284V251.222C52.6682 257.219 58.2961 262.081 65.2384 262.081H165.512C172.455 262.081 178.083 257.219 178.083 251.222V131.284C178.083 125.287 172.455 120.425 165.512 120.425Z" fill="#C780F1" stroke="#263238" stroke-width="1.10311" stroke-miterlimit="10"/>
<path opacity="0.2" d="M165.512 120.425H65.2384C58.2961 120.425 52.6682 125.287 52.6682 131.284V251.222C52.6682 257.219 58.2961 262.081 65.2384 262.081H165.512C172.455 262.081 178.083 257.219 178.083 251.222V131.284C178.083 125.287 172.455 120.425 165.512 120.425Z" fill="black"/>
<path d="M189.751 141.987V261.924C189.753 263.351 189.429 264.764 188.797 266.082C188.166 267.401 187.241 268.599 186.073 269.608C184.906 270.618 183.52 271.418 181.994 271.964C180.468 272.511 178.833 272.792 177.181 272.792H76.9073C75.2566 272.791 73.6222 272.509 72.0976 271.962C70.573 271.415 69.188 270.615 68.0216 269.605C66.8553 268.596 65.9304 267.398 65.2999 266.08C64.6693 264.762 64.3454 263.35 64.3467 261.924V141.987C64.3467 139.108 65.6697 136.347 68.025 134.311C70.3803 132.274 73.5751 131.129 76.9073 131.127H177.181C180.515 131.127 183.712 132.271 186.07 134.308C188.427 136.344 189.751 139.107 189.751 141.987Z" fill="white" stroke="#263238" stroke-width="1.10311" stroke-linecap="round" stroke-linejoin="round"/>
<path d="M189.751 141.987V148.406H64.3467V141.987C64.3467 139.108 65.6697 136.347 68.025 134.311C70.3803 132.274 73.5751 131.129 76.9073 131.127H177.181C180.515 131.127 183.712 132.271 186.07 134.308C188.427 136.344 189.751 139.107 189.751 141.987Z" fill="#C780F1" stroke="#263238" stroke-width="1.10311" stroke-miterlimit="10"/>
<path d="M106.995 155.845H76.1403V160.318H106.995V155.845Z" fill="#C780F1"/>
<path d="M106.995 195.929H76.1403V200.402H106.995V195.929Z" fill="#C780F1"/>
<path d="M106.995 232.277H76.1403V236.75H106.995V232.277Z" fill="#C780F1"/>
<path d="M163.767 166.92H76.1403V170.2H163.767V166.92Z" fill="#263238"/>
<path d="M147.966 173.191H76.1403V176.388H147.966V173.191Z" fill="#263238"/>
<path d="M157.372 179.362H76.1403V182.559H157.372V179.362Z" fill="#263238"/>
<path d="M157.372 185.525H76.1403V188.722H157.372V185.525Z" fill="#263238"/>
<path d="M163.767 203.268H76.1403V206.549H163.767V203.268Z" fill="#263238"/>
<path d="M147.966 209.539H76.1403V212.736H147.966V209.539Z" fill="#263238"/>
<path d="M157.372 215.71H76.1403V218.908H157.372V215.71Z" fill="#263238"/>
<path d="M163.767 243.178H76.1403V246.459H163.767V243.178Z" fill="#263238"/>
<path d="M147.966 249.457H76.1403V252.655H147.966V249.457Z" fill="#263238"/>
<path d="M157.372 255.628H76.1403V258.826H157.372V255.628Z" fill="#263238"/>
<path d="M331.092 47.9604V96.4356C331.092 98.1365 330.704 99.8208 329.95 101.392C329.196 102.964 328.092 104.391 326.699 105.594C325.306 106.796 323.653 107.749 321.834 108.4C320.015 109.05 318.065 109.384 316.096 109.383H186.865C184.897 109.384 182.947 109.05 181.127 108.4C179.308 107.749 177.655 106.796 176.262 105.594C174.87 104.391 173.765 102.964 173.011 101.392C172.257 99.8208 171.869 98.1365 171.869 96.4356V47.9604C171.872 44.525 173.453 41.231 176.264 38.8019C179.076 36.3728 182.889 35.0071 186.865 35.0049H316.096C320.073 35.0049 323.887 36.3699 326.7 38.7995C329.512 41.2291 331.092 44.5244 331.092 47.9604Z" fill="white" stroke="#222221" stroke-width="1.10311" stroke-miterlimit="10"/>
<path d="M331.092 47.9604V49.0703H171.869V47.9604C171.872 44.525 173.453 41.231 176.264 38.8019C179.076 36.3728 182.889 35.0071 186.865 35.0049H316.096C320.073 35.0049 323.887 36.3699 326.7 38.7995C329.512 41.2291 331.092 44.5244 331.092 47.9604Z" fill="#C780F1" stroke="#263238" stroke-width="1.10311" stroke-miterlimit="10"/>
<path d="M195.265 44.357C194.943 44.6355 194.533 44.8253 194.087 44.9024C193.64 44.9795 193.177 44.9405 192.756 44.7901C192.335 44.6398 191.976 44.385 191.723 44.0579C191.469 43.7309 191.334 43.3464 191.334 42.953C191.334 42.5595 191.469 42.175 191.723 41.8479C191.976 41.5209 192.335 41.2661 192.756 41.1158C193.177 40.9654 193.64 40.9264 194.087 41.0035C194.533 41.0806 194.943 41.2704 195.265 41.5489C195.693 41.9226 195.933 42.4272 195.933 42.953C195.933 43.4787 195.693 43.9833 195.265 44.357V44.357Z" fill="#263238"/>
<path d="M205.927 44.357C205.605 44.6355 205.195 44.8253 204.749 44.9024C204.302 44.9795 203.839 44.9405 203.418 44.7901C202.998 44.6398 202.638 44.385 202.385 44.0579C202.132 43.7309 201.997 43.3464 201.997 42.953C201.997 42.5595 202.132 42.175 202.385 41.8479C202.638 41.5209 202.998 41.2661 203.418 41.1158C203.839 40.9654 204.302 40.9264 204.749 41.0035C205.195 41.0806 205.605 41.2704 205.927 41.5489C206.355 41.9226 206.595 42.4272 206.595 42.953C206.595 43.4787 206.355 43.9833 205.927 44.357V44.357Z" fill="#263238"/>
<path d="M216.589 44.357C216.267 44.6355 215.857 44.8253 215.411 44.9024C214.964 44.9795 214.501 44.9405 214.08 44.7901C213.66 44.6398 213.3 44.385 213.047 44.0579C212.794 43.7309 212.659 43.3464 212.659 42.953C212.659 42.5595 212.794 42.175 213.047 41.8479C213.3 41.5209 213.66 41.2661 214.08 41.1158C214.501 40.9654 214.964 40.9264 215.411 41.0035C215.857 41.0806 216.267 41.2704 216.589 41.5489C217.017 41.9226 217.257 42.4272 217.257 42.953C217.257 43.4787 217.017 43.9833 216.589 44.357Z" fill="#263238"/>
<path d="M234.068 57.9834H182.023V96.8498H234.068V57.9834Z" stroke="#263238" stroke-width="1.10311" stroke-linecap="round" stroke-linejoin="round" stroke-dasharray="4.41 4.41"/>
<path d="M302.001 57.9834H242.103V60.717H302.001V57.9834Z" fill="#263238"/>
<path d="M288.05 63.6411H242.103V66.3663H288.05V63.6411Z" fill="#263238"/>
<path d="M310.516 69.2739H242.103V72.0323H310.516V69.2739Z" fill="#263238"/>
<path d="M300.362 74.7659H242.103V77.5243H300.362V74.7659Z" fill="#263238"/>
<path d="M335.445 168.27H306.153C302.695 168.27 299.892 170.692 299.892 173.679V188.532C299.892 191.519 302.695 193.941 306.153 193.941H335.445C338.903 193.941 341.706 191.519 341.706 188.532V173.679C341.706 170.692 338.903 168.27 335.445 168.27Z" fill="white" stroke="#263238" stroke-width="1.10311" stroke-linecap="round" stroke-linejoin="round"/>
<path d="M313.382 175.991L305.338 180.348L312.807 186.063" stroke="#263238" stroke-width="1.10311" stroke-linecap="round" stroke-linejoin="round"/>
<path d="M328.033 186.478L335.263 181.159L326.921 176.438" stroke="#263238" stroke-width="1.10311" stroke-linecap="round" stroke-linejoin="round"/>
<path d="M317.294 189.758L323.23 173.671" stroke="#263238" stroke-width="1.10311" stroke-linecap="round" stroke-linejoin="round"/>
<path d="M255.431 329.75C255.431 329.75 227.625 336.633 223.742 337.826C220.213 338.903 210.644 341.802 203.463 340.899C202.769 340.813 202.084 340.686 201.411 340.518C194.133 338.646 190.864 336.898 189.905 332.947C188.946 328.996 192.57 326.08 196.061 324.216C199.551 322.352 218.478 320.406 218.478 320.406L223.051 321.565L255.431 329.75Z" fill="#C780F1"/>
<path d="M203.463 340.899C202.769 340.813 202.084 340.686 201.411 340.518C194.133 338.646 190.864 336.898 189.905 332.947C188.946 328.996 192.57 326.08 196.061 324.216C199.551 322.352 218.478 320.406 218.478 320.406L223.051 321.565C218.909 323.222 203.491 324.125 200.126 325.798C196.76 327.472 195.14 330.619 197.125 334.91C198.189 337.147 201.027 339.342 203.463 340.899Z" fill="white"/>
<path d="M251.251 330.727C251.251 330.727 230.367 335.399 222.083 338.389C213.799 341.38 198.007 342.688 192.359 336.525C186.712 330.362 191.707 325.044 197.336 323.86C202.964 322.675 214.345 320.812 220.559 321.565" stroke="#263238" stroke-width="1.10311" stroke-linecap="round" stroke-linejoin="round"/>
<path d="M203.875 340.576C203.875 340.576 193.251 335.54 196.78 328.482C199.388 323.28 213.559 324.407 220.578 321.565" stroke="#263238" stroke-width="1.10311" stroke-linecap="round" stroke-linejoin="round"/>
<path d="M340.124 342.017C339.836 344.502 338.83 346.83 335.953 348.296C334.036 349.274 331.312 349.854 327.41 349.82C317.659 349.713 299.326 343.691 299.326 343.691L282.163 335.49L291.09 323.288L293.535 319.975L299.844 321.201C299.844 321.201 305.069 323.76 310.324 325.798C315.578 327.836 328.34 328.283 332.837 331.406C337.334 334.529 340.613 337.925 340.124 342.017Z" fill="#C780F1"/>
<path d="M340.124 342.017C339.836 344.502 338.83 346.83 335.953 348.296C336.782 345.853 336.612 343.239 335.474 340.891C333.556 337.172 327.314 333.891 319.107 333.345C310.899 332.798 304.619 329.484 301.33 328.002C298.76 326.85 293.343 324.332 291.09 323.288L293.535 319.975L299.844 321.201C299.844 321.201 305.069 323.76 310.324 325.798C315.578 327.836 328.34 328.283 332.837 331.406C337.334 334.529 340.613 337.925 340.124 342.017Z" fill="white"/>
<path d="M285.97 337.793C298.324 343.997 311.978 348.026 326.144 349.647C329.27 349.97 332.904 350.019 334.994 347.99C335.55 347.404 335.964 346.727 336.211 346C336.459 345.272 336.534 344.51 336.433 343.757C336.059 339.947 332.348 336.931 328.283 335.415C324.217 333.9 319.739 333.552 315.415 332.715C311.114 331.877 306.957 330.563 303.046 328.805C299.94 327.405 296.939 325.707 293.516 325.078C290.093 324.448 286.018 325.21 284.186 327.795" stroke="#263238" stroke-width="1.10311" stroke-linecap="round" stroke-linejoin="round"/>
<path d="M333.844 349.025C335.45 348.361 336.855 347.381 337.945 346.164C339.036 344.948 339.782 343.528 340.124 342.017C340.747 338.431 338.379 334.819 335.052 332.616C331.725 330.412 327.554 329.368 323.44 328.631C319.327 327.894 315.118 327.397 311.177 326.047C305.165 324.009 299.23 320 292.959 321.433" stroke="#263238" stroke-width="1.10311" stroke-linecap="round" stroke-linejoin="round"/>
<path d="M305.338 209.464L276.295 199.922L275.931 199.797C275.931 199.797 276.036 199.135 276.122 198.141C276.305 196.136 276.4 192.872 275.307 191.771C273.687 190.114 269.104 191.506 264.626 189.733C260.148 187.96 251.874 191.133 251.874 191.133C251.874 191.133 245.891 190.18 243.244 193.908C241.902 196.915 242.362 201.363 242.362 201.363L241.816 201.529C238.354 202.647 219.523 208.769 215.544 211.229C211.143 213.921 206.272 241.563 204.709 249.681C203.146 257.799 200.366 265.113 201.775 267.905C203.185 270.696 223.416 284.157 235.056 287.628C246.696 291.099 287.974 290.113 287.974 290.113C287.974 290.113 288.645 289.955 289.843 289.624C296.823 287.686 321.59 279.684 334.735 260.897C334.755 260.93 322.021 224.872 305.338 209.464ZM226.868 255.96C224.729 257.269 225.909 262.338 225.909 262.338L222.275 259.571L231.403 240.18L235.296 255.09C235.296 255.09 229.006 254.659 226.868 255.96V255.96ZM299.892 268.277C298.885 268.725 302.768 259.406 300.927 257.293C299.086 255.181 293.535 255.38 293.535 255.38L294.005 252.837L297.293 238.258L298.386 237.14C298.386 237.14 309.681 253.864 311.704 259.762C311.704 259.779 299.393 268.277 299.892 268.277Z" fill="#C780F1"/>
<path d="M250.503 148.986L235.507 162.737C235.507 162.737 233.445 164.319 234.26 168.303C235.075 172.288 236.993 175.759 238.441 175.991C239.587 176.164 240.748 176.253 241.912 176.256C241.912 176.256 245.124 182.27 247.406 184.63C247.406 184.63 248.192 193.916 247.77 196.492C247.77 196.492 253.159 200.56 258.231 201.073C263.303 201.587 271.137 194.877 271.137 194.877L273.054 186.66C273.054 186.66 277.657 180.629 277.963 179.022C278.27 177.415 280.38 177.83 281.415 177.034C282.451 176.239 284.838 172.702 285.25 169.355C285.663 166.009 285.672 162.165 281.175 163.292C277.273 162.389 279.718 155.265 279.718 155.265L272.862 150.047L250.503 148.986Z" fill="white"/>
<path opacity="0.5" d="M276.295 199.922C276.069 200.434 275.81 200.934 275.518 201.421C273.045 205.447 262.267 213.126 262.267 213.126L259.007 204.469L257.224 213.126C253.628 211.767 242.659 203.558 242.659 203.558C242.659 203.558 242.285 202.788 241.835 201.587L242.381 201.421C242.381 201.421 241.921 196.94 243.264 193.966C245.891 190.238 251.893 191.191 251.893 191.191C251.893 191.191 260.168 188.018 264.645 189.791C269.123 191.564 273.706 190.189 275.327 191.829C276.947 193.469 275.95 199.831 275.95 199.831L276.295 199.922Z" fill="white"/>
<path opacity="0.2" d="M305.338 209.464L276.295 199.922L275.931 199.797C275.931 199.797 276.036 199.135 276.122 198.141L275.518 201.396L271.223 206.433C275.815 207.893 280.298 209.597 284.646 211.535C286.728 212.499 288.427 213.981 289.521 215.789C290.615 217.597 291.055 219.647 290.783 221.674L285.433 261.228L283.237 283.685L289.862 289.624C296.843 287.686 321.609 279.684 334.755 260.897C334.755 260.93 322.021 224.872 305.338 209.464ZM299.892 268.277C298.885 268.725 302.768 259.406 300.927 257.293C299.086 255.181 293.535 255.38 293.535 255.38L294.005 252.837L297.293 238.258L298.386 237.14C298.386 237.14 309.681 253.864 311.704 259.762C311.704 259.779 299.393 268.277 299.892 268.277Z" fill="black"/>
<path opacity="0.2" d="M237.223 257.293L232.707 244.255C232.707 244.255 224.605 220.39 219.053 214.509L220.511 231.291C220.511 231.291 215.716 251.338 211.335 257.293C206.953 263.249 205.975 264.749 211.335 264.749C216.694 264.749 229.744 273.728 229.744 273.728L228.737 266.273L237.223 257.293ZM225.842 262.338L222.208 259.571L231.336 240.18L235.229 255.09C235.229 255.09 228.977 254.684 226.839 255.985C224.701 257.285 225.842 262.338 225.842 262.338Z" fill="black"/>
<path d="M247.406 184.63C247.406 184.63 248.233 191.663 247.406 194.877" stroke="#263238" stroke-width="1.10311" stroke-linecap="round" stroke-linejoin="round"/>
<path d="M271.971 193.933C271.98 191.671 272.282 189.418 272.872 187.215" stroke="#263238" stroke-width="1.10311" stroke-linecap="round" stroke-linejoin="round"/>
<path d="M274.147 154.23C274.147 154.23 279.076 159.573 278.817 163.615C278.558 167.657 278.194 172.445 278.318 177.134C278.443 181.822 269.602 191.646 265.058 192.516C260.513 193.386 256.601 193.61 253.696 191.1C250.79 188.59 247.885 185.102 244.107 180.629C240.329 176.156 241.231 166.34 241.231 166.34" stroke="#263238" stroke-width="1.10311" stroke-linecap="round" stroke-linejoin="round"/>
<path d="M262.277 170.076C261.977 171.544 261.848 173.034 261.893 174.524C261.795 175.78 262.246 177.022 263.159 178.004C263.706 178.484 264.492 178.873 264.597 179.536C264.595 179.834 264.499 180.126 264.32 180.382C264.141 180.637 263.886 180.845 263.581 180.986C262.966 181.254 262.373 181.558 261.807 181.897" stroke="#263238" stroke-width="1.10311" stroke-linecap="round" stroke-linejoin="round"/>
<path d="M254.482 182.41C254.482 182.41 255.047 185.583 259.966 186.246" stroke="#263238" stroke-width="1.10311" stroke-linecap="round" stroke-linejoin="round"/>
<path d="M254.99 172.495C254.99 173.414 254.53 174.152 253.964 174.152C253.398 174.152 252.938 173.414 252.938 172.495C252.938 171.575 253.398 170.838 253.964 170.838C254.53 170.838 254.99 171.584 254.99 172.495Z" fill="#263238"/>
<path d="M269.67 172.893C269.67 173.812 269.209 174.549 268.644 174.549C268.078 174.549 267.618 173.804 267.618 172.893C267.618 171.981 268.078 171.236 268.644 171.236C269.209 171.236 269.67 171.973 269.67 172.893Z" fill="#263238"/>
<path d="M266.707 168.875C266.707 168.875 271.501 164.733 275.518 169.355" stroke="#263238" stroke-width="2.20621" stroke-linecap="round" stroke-linejoin="round"/>
<path d="M256.61 168.958C256.61 168.958 253.58 166.026 248.806 168.958" stroke="#263238" stroke-width="2.20621" stroke-linecap="round" stroke-linejoin="round"/>
<path d="M247.77 188.54C247.77 188.54 250.694 195.498 257.224 197.478C263.754 199.458 272.421 189.195 272.421 189.195L271.971 187.861C271.971 187.861 266.285 194.239 259.966 193.154C253.648 192.069 247.406 184.663 247.406 184.663L247.77 188.54Z" fill="#263238"/>
<path d="M241.912 175.991C241.912 175.991 238.019 177.175 236.983 174.558C235.948 171.94 232.4 165.04 235.507 162.737C238.613 160.434 241.106 165.777 241.106 165.777" stroke="#263238" stroke-width="1.10311" stroke-linecap="round" stroke-linejoin="round"/>
<path d="M278.309 177.415C278.309 177.415 281.923 178.045 282.959 175.427C283.994 172.81 287.542 165.91 284.435 163.607C281.329 161.304 278.836 166.647 278.836 166.647" stroke="#263238" stroke-width="1.10311" stroke-linecap="round" stroke-linejoin="round"/>
<path d="M241.106 172.495C242.458 172.311 243.679 171.689 244.52 170.755C245.033 169.936 245.359 169.039 245.478 168.113C245.834 166.351 246.014 164.567 246.015 162.778C245.973 162.08 246.047 161.38 246.236 160.699C246.524 160.015 246.967 159.387 247.54 158.852C248.892 157.477 250.531 156.317 251.826 154.892C252.52 154.22 253.048 153.433 253.377 152.578C253.707 151.724 253.832 150.82 253.743 149.922C256.71 152.035 260.176 153.561 263.898 154.393C267.62 155.224 271.508 155.341 275.288 154.735C282.144 153.575 288.712 148.382 287.916 141.854C287.766 140.76 287.223 139.734 286.363 138.919C285.503 138.105 284.37 137.544 283.122 137.315C279.737 136.586 276.698 138.143 273.629 139.145C268.04 140.968 262.565 137.837 256.917 137.315C252.123 136.859 246.15 137.381 243.637 141.531C243.637 141.531 235.008 142.409 231.173 148.572C227.337 154.735 234.596 163.259 234.596 163.259C234.596 163.259 237.472 160.21 241.24 166.373L241.106 172.495Z" fill="#263238"/>
<path d="M274.742 152.656C274.742 152.656 272.498 162.762 278.357 167.657C278.357 167.657 279.641 164.617 280.936 163.872C281.869 162.078 282.264 160.111 282.085 158.15C281.906 156.19 281.158 154.3 279.91 152.656C275.576 146.775 274.742 152.656 274.742 152.656Z" fill="#263238"/>
<path opacity="0.2" d="M285.423 141.158C284.909 142.537 284.037 143.797 282.873 144.84C281.71 145.884 280.287 146.684 278.711 147.181C270.58 150.047 262.689 146.874 254.539 146.253C247.895 145.739 240.56 150.925 240.09 156.823" stroke="white" stroke-width="1.10311" stroke-linecap="round" stroke-linejoin="round"/>
<path opacity="0.2" d="M235.075 155.265C235.175 152.938 236.039 150.683 237.567 148.764C239.095 146.846 241.224 145.342 243.705 144.43" stroke="white" stroke-width="1.10311" stroke-linecap="round" stroke-linejoin="round"/>
<path d="M245.526 193.933C249.102 197.152 253.416 199.691 258.192 201.388C258.192 201.388 267.924 198.944 272.872 193.104" stroke="#263238" stroke-width="1.10311" stroke-linecap="round" stroke-linejoin="round"/>
<path d="M255.472 179.24C259.794 177.527 261.691 173.111 259.708 169.377C257.726 165.643 252.615 164.004 248.292 165.717C243.97 167.43 242.073 171.846 244.056 175.58C246.039 179.314 251.15 180.953 255.472 179.24Z" stroke="#263238" stroke-width="1.10311" stroke-linecap="round" stroke-linejoin="round"/>
<path d="M272.157 179.895C276.876 179.394 280.233 175.683 279.653 171.605C279.074 167.527 274.778 164.628 270.058 165.128C265.338 165.629 261.982 169.34 262.561 173.418C263.141 177.496 267.437 180.395 272.157 179.895Z" stroke="#263238" stroke-width="1.10311" stroke-linecap="round" stroke-linejoin="round"/>
<path d="M247.406 191.158C246.533 191.356 245.716 191.703 245.003 192.18C244.289 192.657 243.695 193.253 243.254 193.933C241.729 196.252 242.65 203.55 242.65 203.55C242.65 203.55 250.522 210.276 257.224 213.117L259.199 203.517L262.267 213.117C262.267 213.117 272.642 206.78 275.518 201.421C275.518 201.421 276.477 195.167 275.518 193.138C275.3 192.574 274.886 192.082 274.331 191.731C273.776 191.379 273.109 191.185 272.421 191.174" stroke="#263238" stroke-width="1.10311" stroke-linecap="round" stroke-linejoin="round"/>
<path d="M235.075 255.388C235.075 255.388 231.997 237.579 227.903 230.314" stroke="#263238" stroke-width="1.10311" stroke-linecap="round" stroke-linejoin="round"/>
<path d="M219.053 214.509C221.437 217.436 223.565 220.512 225.42 223.712" stroke="#263238" stroke-width="1.10311" stroke-linecap="round" stroke-linejoin="round"/>
<path d="M299.892 227.804C300.718 224.826 301.851 221.918 303.276 219.115" stroke="#263238" stroke-width="1.10311" stroke-linecap="round" stroke-linejoin="round"/>
<path d="M293.535 255.388C293.535 255.388 295.75 243.178 298.396 233.122" stroke="#263238" stroke-width="1.10311" stroke-linecap="round" stroke-linejoin="round"/>
<path d="M297.293 238.241C299.434 235.789 302.444 234.009 305.865 233.172" stroke="#263238" stroke-width="1.10311" stroke-linecap="round" stroke-linejoin="round"/>
<path d="M275.94 199.797C275.94 199.797 293.803 205.969 305.338 209.473C305.338 209.473 319.528 220.995 334.745 260.93C334.745 260.93 320.804 281.191 294.283 287.686" stroke="#263238" stroke-width="1.10311" stroke-linecap="round" stroke-linejoin="round"/>
<path d="M298.885 268.998L311.704 259.778C311.704 259.778 318.483 255.33 325.531 258.37" stroke="#263238" stroke-width="1.10311" stroke-linecap="round" stroke-linejoin="round"/>
<path d="M298.396 237.14C298.396 237.14 308.991 250.667 311.704 259.778" stroke="#263238" stroke-width="1.10311" stroke-linecap="round" stroke-linejoin="round"/>
<path d="M225.985 262.852L222.236 259.779C222.236 259.779 216.675 258.95 210.366 262.587" stroke="#263238" stroke-width="1.10311" stroke-linecap="round" stroke-linejoin="round"/>
<path d="M222.236 259.779C222.236 259.779 226.896 246.525 231.489 239.741" stroke="#263238" stroke-width="1.10311" stroke-linecap="round" stroke-linejoin="round"/>
<path d="M242.381 201.421C242.381 201.421 216.675 209.754 214.154 212.19C211.632 214.625 202.053 261.22 201.794 266.554C201.574 271.326 221.594 282.036 231.518 286.551" stroke="#263238" stroke-width="1.10311" stroke-linecap="round" stroke-linejoin="round"/>
<path d="M261.606 217.168C261.606 217.458 261.506 217.741 261.32 217.983C261.133 218.224 260.868 218.412 260.558 218.523C260.248 218.634 259.907 218.663 259.578 218.606C259.248 218.549 258.946 218.41 258.709 218.205C258.471 218 258.31 217.738 258.244 217.454C258.179 217.17 258.212 216.875 258.341 216.607C258.469 216.339 258.687 216.11 258.966 215.949C259.245 215.788 259.573 215.702 259.909 215.702C260.132 215.701 260.353 215.738 260.56 215.811C260.766 215.884 260.954 215.992 261.112 216.129C261.269 216.265 261.394 216.427 261.479 216.606C261.564 216.784 261.607 216.975 261.606 217.168V217.168Z" fill="#263238"/>
<path d="M291.349 295.215H232.86C232.497 295.215 232.148 295.091 231.891 294.869C231.634 294.646 231.489 294.345 231.489 294.031C231.489 293.717 231.634 293.415 231.891 293.193C232.148 292.971 232.497 292.846 232.86 292.846H291.349C291.712 292.846 292.061 292.971 292.318 293.193C292.575 293.415 292.72 293.717 292.72 294.031C292.72 294.345 292.575 294.646 292.318 294.869C292.061 295.091 291.712 295.215 291.349 295.215Z" fill="#263238"/>
<path d="M293.4 291.256L301.234 259.447C301.356 258.954 301.348 258.444 301.212 257.953C301.075 257.463 300.814 257.005 300.446 256.614C300.078 256.222 299.614 255.907 299.086 255.69C298.559 255.474 297.982 255.362 297.399 255.363H229.035C228.456 255.363 227.884 255.474 227.361 255.688C226.838 255.902 226.377 256.214 226.01 256.601C225.643 256.987 225.38 257.439 225.24 257.925C225.1 258.41 225.086 258.915 225.199 259.406L232.227 290.154C232.4 290.909 232.865 291.591 233.547 292.087C234.229 292.582 235.086 292.862 235.976 292.879L289.469 293.94C290.384 293.957 291.276 293.699 291.994 293.209C292.711 292.719 293.209 292.028 293.4 291.256V291.256Z" fill="white" stroke="#263238" stroke-width="1.10311" stroke-linecap="round" stroke-linejoin="round"/>
<path d="M268.452 273.72C268.45 274.652 268.128 275.562 267.528 276.336C266.927 277.11 266.074 277.713 265.077 278.068C264.08 278.424 262.984 278.516 261.926 278.333C260.868 278.15 259.897 277.701 259.135 277.041C258.373 276.382 257.854 275.542 257.645 274.628C257.435 273.714 257.543 272.767 257.957 271.906C258.37 271.045 259.069 270.309 259.966 269.792C260.863 269.274 261.918 268.998 262.996 268.998C263.713 268.998 264.424 269.12 265.086 269.358C265.749 269.595 266.351 269.943 266.857 270.382C267.364 270.82 267.766 271.341 268.039 271.913C268.313 272.486 268.453 273.1 268.452 273.72Z" fill="#263238"/>
<path d="M279.181 258.403H287.302" stroke="#263238" stroke-width="1.10311" stroke-linecap="round" stroke-linejoin="round"/>
<path d="M240.397 258.403H271.223" stroke="#263238" stroke-width="1.10311" stroke-linecap="round" stroke-linejoin="round"/>
<path d="M293.535 325.028L287.302 339.16C287.302 339.16 271.405 335.697 251.049 332.094C229.754 328.325 207.518 323.446 195.984 305.959C194.584 303.83 193.644 301.312 194.306 298.926C195.965 292.888 205.064 291.248 211.057 290.643C214.824 290.291 218.61 290.108 222.399 290.096C224.317 290.096 230.693 289.193 232.237 290.179C234.556 291.641 237.032 292.908 239.63 293.965C243.033 295.215 292.72 292.846 292.72 292.846C293.584 291.218 294.113 289.471 294.283 287.686C302.097 284.256 320.171 281.357 327.841 282.641C339.856 284.654 346.865 290.709 345.532 297.054C344.199 303.4 317.659 320.414 293.535 325.028Z" fill="#263238"/>
<path d="M293.535 325.028C293.535 325.028 278.414 321.565 266.064 314.359C253.715 307.152 244.069 298.786 226.858 300.517" stroke="white" stroke-width="1.10311" stroke-linecap="round" stroke-linejoin="round"/>
<path d="M263.236 312.661C271.041 310.722 276.765 306.357 283.026 302.174C289.63 297.595 296.722 293.567 304.206 290.146" stroke="white" stroke-width="1.10311" stroke-linecap="round" stroke-linejoin="round"/>
<path d="M260.484 173.671H262.776" stroke="#263238" stroke-width="1.10311" stroke-linecap="round" stroke-linejoin="round"/>
</svg>
