<svg width="1440" height="132" viewBox="0 0 1440 132" fill="none" xmlns="http://www.w3.org/2000/svg">
<path fill-rule="evenodd" clip-rule="evenodd" d="M0 99.7256L40 83.7247C80 68.0875 160 36.8131 240 18.2666C320 0.083845 400 -5.00734 480 5.17503C560 15.7211 640 41.9043 720 65.5419C800 89.1796 880 109.908 960 115.363C1040 120.454 1120 109.908 1200 96.8163C1280 83.7247 1360 68.0875 1400 60.4507L1440 52.4503V131H1400C1360 131 1280 131 1200 131C1120 131 1040 131 960 131C880 131 800 131 720 131C640 131 560 131 480 131C400 131 320 131 240 131C160 131 80 131 40 131H0V99.7256Z" fill="#7762B3"/>
<path fill-rule="evenodd" clip-rule="evenodd" d="M0 104.784L40 90.8597C80 77.2517 160 50.0358 240 33.8962C320 18.073 400 13.6425 480 22.5035C560 31.6809 640 54.4663 720 75.0365C800 95.6066 880 113.645 960 118.392C1040 122.823 1120 113.645 1200 102.252C1280 90.8597 1360 77.2517 1400 70.606L1440 63.6438V132H1400C1360 132 1280 132 1200 132C1120 132 1040 132 960 132C880 132 800 132 720 132C640 132 560 132 480 132C400 132 320 132 240 132C160 132 80 132 40 132H0V104.784Z" fill="#B72323"/>
</svg>
